<svg id="Слой_2" data-name="Слой 2" xmlns="http://www.w3.org/2000/svg" viewBox="0 0 69.93 44.81"><defs><style>.cls-1{fill:#5cacff;}.cls-1,.cls-2{stroke:#000;stroke-miterlimit:10;}.cls-2{fill:none;}</style></defs><path class="cls-1" d="M7.64,39.81a1.81,1.81,0,0,1,.22.34Z" transform="translate(19.97 -5.92)"/><path class="cls-1" d="M16.52,6.5h-3c.5,0,1-.08,1.52-.08S16,6.45,16.52,6.5Z" transform="translate(19.97 -5.92)"/><path class="cls-1" d="M49.46,18.5v5.58a12,12,0,0,1-12,12H35.25c-8.39.19-11.26,2.49-12.16,3.59A57.26,57.26,0,0,1,15,50a89.1,89.1,0,0,1-7.09-9.75.08.08,0,0,0,0,0,.11.11,0,0,0,0-.06,1.81,1.81,0,0,0-.22-.34c-.74-1-3.47-3.53-12.25-3.73H-7.47a12,12,0,0,1-12-12V18.5a12,12,0,0,1,12-12H37.46A12,12,0,0,1,49.46,18.5Z" transform="translate(19.97 -5.92)"/><path class="cls-1" d="M-4.61,36.08h0Z" transform="translate(19.97 -5.92)"/><path class="cls-1" d="M37.28,36.08h0Z" transform="translate(19.97 -5.92)"/><path class="cls-2" d="M7.91,40.25l0,0" transform="translate(19.97 -5.92)"/><path class="cls-2" d="M23.09,39.67a2.53,2.53,0,0,0-.37.58" transform="translate(19.97 -5.92)"/></svg>